<svg width="45" height="55" viewBox="0 0 45 55" fill="none" xmlns="http://www.w3.org/2000/svg">
<path d="M41.6302 5.47222H29.5658C29.0638 4.0146 28.1271 2.74586 26.8819 1.83696C25.6367 0.928054 24.1429 0.422664 22.6016 0.388885C21.0756 0.442018 19.6015 0.956156 18.3735 1.86357C17.1454 2.77099 16.2211 4.02911 15.7222 5.47222H3.86106C3.44609 5.4122 3.02312 5.44087 2.62005 5.55632C2.21698 5.67178 1.84297 5.8714 1.52272 6.14202C1.20246 6.41263 0.943237 6.74809 0.762148 7.12625C0.58106 7.50441 0.482225 7.91667 0.472168 8.33583V51.7475C0.474387 52.1258 0.551094 52.4999 0.697909 52.8486C0.844724 53.1972 1.05877 53.5135 1.32783 53.7794C1.59689 54.0453 1.91569 54.2556 2.26603 54.3983C2.61637 54.541 2.99139 54.6133 3.36967 54.6111H41.6302C42.0085 54.6133 42.3835 54.541 42.7339 54.3983C43.0842 54.2556 43.403 54.0453 43.6721 53.7794C43.9411 53.5135 44.1552 53.1972 44.302 52.8486C44.4488 52.4999 44.5255 52.1258 44.5277 51.7475V8.33583C44.5255 7.95755 44.4488 7.58341 44.302 7.23477C44.1552 6.88613 43.9411 6.56983 43.6721 6.30392C43.403 6.03801 43.0842 5.82769 42.7339 5.68499C42.3835 5.54229 42.0085 5.46999 41.6302 5.47222ZM11.1302 10.5556C11.1302 10.1062 11.3087 9.67517 11.6265 9.3574C11.9443 9.03963 12.3753 8.86111 12.8247 8.86111H18.6536V7.69194C18.6536 7.17681 18.755 6.66673 18.9522 6.19081C19.1493 5.7149 19.4382 5.28247 19.8025 4.91822C20.1667 4.55397 20.5992 4.26503 21.0751 4.0679C21.551 3.87076 22.0611 3.7693 22.5762 3.7693C23.0913 3.7693 23.6014 3.87076 24.0773 4.0679C24.5532 4.26503 24.9857 4.55397 25.3499 4.91822C25.7142 5.28247 26.0031 5.7149 26.2002 6.19081C26.3974 6.66673 26.4988 7.17681 26.4988 7.69194V8.86111H32.3277C32.7771 8.86111 33.2081 9.03963 33.5259 9.3574C33.8436 9.67517 34.0222 10.1062 34.0222 10.5556V13.9444H11.1641L11.1302 10.5556ZM34.3611 44.4444H10.6388V41.0555H34.3611V44.4444ZM34.3611 37.6667H10.6388V34.2778H34.3611V37.6667ZM34.3611 30.8889H10.6388V27.5H34.3611V30.8889ZM34.3611 24.1111H10.6388V20.7222H34.3611V24.1111Z" fill="white"/>
</svg>
